<?xml version="1.0" standalone="no"?>
<!DOCTYPE svg PUBLIC "-//W3C//DTD SVG 20010904//EN"
 "http://www.w3.org/TR/2001/REC-SVG-20010904/DTD/svg10.dtd">
<svg version="1.0" xmlns="http://www.w3.org/2000/svg"
 width="50.000000pt" height="50.000000pt" viewBox="0 0 50.000000 50.000000"
 preserveAspectRatio="xMidYMid meet">
<metadata>
Created by potrace 1.16, written by Peter Selinger 2001-2019
</metadata>
<g transform="translate(0.000000,50.000000) scale(0.009766,-0.009766)"
fill="#000000" stroke="none">
<path d="M1235 5106 c-116 -37 -207 -116 -258 -224 l-32 -67 -3 -1167 -2
-1168 -358 0 c-355 0 -357 0 -408 -24 -65 -30 -120 -85 -150 -150 l-24 -51 0
-475 0 -475 24 -51 c46 -100 152 -174 249 -174 l47 0 0 -125 c0 -120 1 -127
24 -150 29 -29 66 -40 103 -30 17 4 87 65 178 156 l151 149 81 0 82 0 3 -387
3 -388 32 -67 c41 -88 113 -160 201 -201 l67 -32 1315 0 1315 0 67 32 c88 41
160 113 201 201 l32 67 3 1188 2 1187 82 0 82 0 151 -149 c91 -91 161 -152
177 -156 38 -10 75 1 104 30 23 23 24 30 24 150 l0 125 48 0 c96 0 202 74 248
174 l24 51 0 475 0 475 -24 51 c-30 65 -85 120 -150 150 -51 24 -53 24 -408
24 l-357 0 -3 368 -3 367 -32 67 c-41 88 -113 160 -201 201 l-67 32 -1300 2
c-1031 1 -1308 -1 -1340 -11z m2620 -208 c17 -9 43 -29 59 -44 54 -55 60 -78
64 -231 l4 -143 -496 0 c-532 0 -535 0 -562 -51 -27 -52 -8 -115 41 -137 19
-9 158 -12 520 -12 l495 0 0 -100 0 -99 -647 -3 -648 -3 -47 -23 c-60 -30
-119 -89 -149 -150 l-24 -47 0 -475 0 -475 24 -47 c30 -61 89 -120 149 -150
l47 -23 648 -3 647 -3 0 -919 0 -920 -1420 0 -1420 0 0 120 0 119 648 3 647 3
46 23 c61 30 113 81 147 145 l27 52 0 475 0 475 -27 52 c-34 64 -86 115 -147
145 l-46 23 -647 3 -648 3 0 899 0 900 495 0 c531 0 534 0 561 51 27 52 8 115
-41 137 -19 9 -158 12 -520 12 l-495 0 0 123 c0 67 4 137 10 156 19 69 80 131
146 151 16 5 592 8 1279 7 1143 -2 1253 -3 1280 -19z m1001 -1033 c63 -26 64
-35 64 -485 0 -450 -1 -459 -64 -485 -21 -9 -68 -15 -116 -15 -77 0 -83 -2
-111 -29 -24 -24 -29 -38 -29 -77 l0 -47 -80 77 -80 76 -842 0 c-783 0 -846 1
-878 18 -57 28 -59 42 -59 482 0 440 2 454 59 482 33 17 105 18 1068 18 884 0
1038 -2 1068 -15z m-2429 -1618 l28 -27 3 -428 c2 -413 2 -428 -18 -460 -11
-18 -32 -37 -46 -42 -16 -6 -344 -10 -866 -10 l-840 0 -84 -82 -84 -82 0 43
c0 48 -21 95 -47 107 -10 4 -62 10 -116 14 -89 5 -99 8 -125 33 l-27 27 0 439
c0 425 1 440 20 461 11 12 29 26 40 31 11 4 496 7 1077 6 l1058 -2 27 -28z
m1551 -1749 c-4 -154 -10 -177 -64 -232 -67 -66 42 -61 -1354 -61 -1396 0
-1287 -5 -1354 61 -54 55 -60 78 -64 232 l-4 142 1422 0 1422 0 -4 -142z"/>
<path d="M2511 4466 c-87 -48 -50 -186 49 -186 51 0 100 49 100 99 0 75 -83
124 -149 87z"/>
<path d="M2927 3656 c-30 -28 -42 -65 -33 -102 4 -14 19 -37 33 -50 l26 -24
839 0 839 0 24 24 c45 45 45 107 0 152 l-24 24 -839 0 -839 0 -26 -24z"/>
<path d="M2927 3256 c-30 -28 -42 -65 -33 -102 4 -14 19 -37 33 -50 l26 -24
309 0 309 0 24 24 c45 45 45 107 0 152 l-24 24 -309 0 -309 0 -26 -24z"/>
<path d="M3949 3251 c-23 -23 -29 -38 -29 -71 0 -33 6 -48 29 -71 l29 -29 327
0 326 0 24 24 c45 45 45 107 0 152 l-24 24 -326 0 -327 0 -29 -29z"/>
<path d="M774 1870 c-54 -21 -72 -105 -34 -153 41 -52 136 -44 165 14 46 89
-37 177 -131 139z"/>
<path d="M1285 1868 c-74 -40 -73 -139 2 -177 62 -32 143 18 143 88 0 73 -83
124 -145 89z"/>
<path d="M1791 1866 c-87 -48 -50 -186 49 -186 51 0 100 49 100 99 0 75 -83
124 -149 87z"/>
<path d="M2514 510 c-55 -22 -72 -108 -31 -155 14 -17 36 -28 63 -32 36 -5 46
-1 75 25 28 25 34 37 34 72 0 72 -72 118 -141 90z"/>
</g>
</svg>
